<?xml version="1.0" encoding="UTF-8"?>
<svg width="300px" height="176px" viewBox="0 0 300 176" version="1.1" xmlns="http://www.w3.org/2000/svg" xmlns:xlink="http://www.w3.org/1999/xlink">
    <!-- Generator: sketchtool 41.2 (35397) - http://www.bohemiancoding.com/sketch -->
    <title>40012D42-F9FF-43BD-8DC6-9E6ECB43E5C3</title>
    <desc>Created with sketchtool.</desc>
    <defs>
        <polygon id="path-1" points="0 174.4911 0 175 300 175 300 0.104 0 0.104 0 174.4911 93.7249 174.4911 93.7249 45.7981 -0.0001 45.7981 -0.0001 174.4911"></polygon>
    </defs>
    <g id="Symbols" stroke="none" stroke-width="1" fill="none" fill-rule="evenodd">
        <g id="Logo">
            <g>
                <g id="Group-3" transform="translate(0.000000, 0.896000)">
                    <mask id="mask-2" fill="white">
                        <use xlink:href="#path-1"></use>
                    </mask>
                    <g id="Clip-2"></g>
                    <path d="M56.0649,174.4911 L0.8359,174.4911 L0.8359,159.6411 L56.0649,159.6411 C61.3669,159.6411 78.6609,158.2021 78.6609,139.7001 C78.6609,122.9201 61.7369,119.4521 59.8029,119.1081 L59.5389,119.0551 C59.3729,119.0341 43.5319,115.7431 31.1559,113.3031 C21.0419,111.3081 -0.0001,107.1551 -0.0001,78.7951 C-0.0001,54.7511 20.0119,45.7981 32.6339,45.7981 L88.6959,45.7981 L88.6959,60.6471 L32.6339,60.6471 C32.4569,60.6471 15.0569,60.8541 15.0569,78.7951 C15.0569,92.6441 20.9379,96.1421 34.1079,98.7441 C45.9219,101.0751 60.8599,104.1621 62.4939,104.4971 C73.3949,106.3551 93.7249,116.0371 93.7249,139.7001 C93.7249,163.7271 74.8099,174.4911 56.0649,174.4911" id="Fill-1" fill="#FFFFFF" mask="url(#mask-2)"></path>
                </g>
                <path d="M56.0649,175.6934 L0.8359,175.6934 L0.8359,160.8434 L56.0649,160.8434 C61.3669,160.8434 78.6609,159.4044 78.6609,140.9024 C78.6609,124.1224 61.7369,120.6544 59.8029,120.3104 L59.5389,120.2574 C59.3729,120.2364 43.5319,116.9454 31.1559,114.5054 C21.0419,112.5104 -0.0001,108.3574 -0.0001,79.9974 C-0.0001,55.9534 20.0119,47.0004 32.6339,47.0004 L88.6959,47.0004 L88.6959,61.8494 L32.6339,61.8494 C32.4569,61.8494 15.0569,62.0564 15.0569,79.9974 C15.0569,93.8464 20.9379,97.3444 34.1079,99.9464 C45.9219,102.2774 60.8599,105.3644 62.4939,105.6994 C73.3949,107.5574 93.7249,117.2394 93.7249,140.9024 C93.7249,164.9294 74.8099,175.6934 56.0649,175.6934" id="Fill-1" fill="#FFFFFF"></path>
                <polygon id="Fill-4" fill="#FFFFFF" points="107.51 175.68 122.57 175.68 122.57 46.784 107.51 46.784"></polygon>
                <polygon id="Fill-6" fill="#FFFFFF" points="107.51 27.776 122.57 27.776 122.57 0.999 107.51 0.999"></polygon>
                <path d="M175.8764,160.5825 C169.0724,160.5825 164.1224,158.8675 161.1594,155.4825 C156.2314,149.8515 157.3784,140.7985 157.3814,140.7535 L157.4654,140.2105 L157.4654,61.5465 L191.7724,61.5465 L191.7724,46.4905 L157.4654,46.4905 L157.4654,1.0565 L142.3984,1.0565 L142.3984,139.1895 C142.0254,142.4465 141.1854,155.4035 149.7004,165.2655 C155.6504,172.1525 164.4614,175.6465 175.8764,175.6465 L192.6094,175.6465 L192.6094,160.5825 L175.8764,160.5825 Z" id="Fill-7" fill="#FFFFFF"></path>
                <path d="M248.7836,160.8315 L235.4116,160.8315 C224.6156,160.8315 215.8326,152.0515 215.8326,141.2545 L215.8326,80.8365 C215.8326,70.0365 224.6156,61.2525 235.4116,61.2525 L248.7836,61.2525 L248.7836,46.1845 L235.4116,46.1845 C216.3036,46.1845 200.7716,61.7315 200.7716,80.8365 L200.7716,141.2545 C200.7716,160.3565 216.3036,175.8955 235.4116,175.8955 L248.7836,175.8955 L248.7836,160.8315 Z" id="Fill-8" fill="#FFFFFF"></path>
                <path d="M265.352,46.185 L252.909,46.185 L252.909,61.253 L265.352,61.253 C276.153,61.253 284.936,70.036 284.936,80.837 L284.936,141.255 C284.936,152.052 276.153,160.832 265.352,160.832 L252.909,160.832 L252.909,175.896 L265.352,175.896 C284.457,175.896 300,160.357 300,141.255 L300,80.837 C300,61.731 284.457,46.185 265.352,46.185" id="Fill-9" fill="#FFFFFF"></path>
            </g>
        </g>
    </g>
</svg>